<?xml version="1.0" encoding="utf-8"?>
<!-- Generator: Adobe Illustrator 15.0.0, SVG Export Plug-In  -->
<!DOCTYPE svg PUBLIC "-//W3C//DTD SVG 1.1//EN" "http://www.w3.org/Graphics/SVG/1.1/DTD/svg11.dtd" [
	<!ENTITY ns_flows "http://ns.adobe.com/Flows/1.0/">
]>
<svg version="1.1"
	 xmlns="http://www.w3.org/2000/svg" xmlns:xlink="http://www.w3.org/1999/xlink" xmlns:a="http://ns.adobe.com/AdobeSVGViewerExtensions/3.0/"
	 x="0px" y="0px" width="40px" height="40px" viewBox="0 0 40 40" enable-background="new 0 0 40 40" xml:space="preserve">
<defs>
</defs>
<rect display="none" fill="#E8E8E8" width="40" height="40"/>
<path fill-rule="evenodd" clip-rule="evenodd" fill="#BBBBBB" d="M31.251,32H8.75C6.679,32,5,30.346,5,28.307V11.691
	C5,9.652,6.679,8,8.75,8h22.501C33.322,8,35,9.652,35,11.691v16.615C35,30.346,33.322,32,31.251,32z M9.687,9.846L20,18.673
	l10.313-8.828H9.687z M33.125,11.691c0-0.53-0.23-1.006-0.596-1.343L20,20.922L7.472,10.349c-0.365,0.337-0.597,0.813-0.597,1.343
	v16.615c0,1.021,0.841,1.846,1.875,1.846h22.501c1.035,0,1.875-0.825,1.875-1.846V11.691z"/>
</svg>
