<?xml version="1.0" encoding="utf-8"?>
<!-- Generator: Adobe Illustrator 15.0.0, SVG Export Plug-In  -->
<!DOCTYPE svg PUBLIC "-//W3C//DTD SVG 1.1//EN" "http://www.w3.org/Graphics/SVG/1.1/DTD/svg11.dtd" [
	<!ENTITY ns_flows "http://ns.adobe.com/Flows/1.0/">
]>
<svg version="1.1"
	 xmlns="http://www.w3.org/2000/svg" xmlns:xlink="http://www.w3.org/1999/xlink" xmlns:a="http://ns.adobe.com/AdobeSVGViewerExtensions/3.0/"
	 x="0px" y="0px" width="48px" height="48px" viewBox="0 0 48 48" enable-background="new 0 0 48 48" xml:space="preserve">
<defs>
</defs>
<rect display="none" fill="#E8E8E8" width="48" height="48"/>
<g>
	<g>
		<g>
			<path fill="#FFF30E" d="M24,46C11.869,46,2,36.131,2,24S11.869,2,24,2s22,9.869,22,22S36.131,46,24,46z M24,4
				C12.972,4,4,12.973,4,24c0,11.028,8.972,20,20,20s20-8.972,20-20C44,12.973,35.028,4,24,4z"/>
		</g>
	</g>
</g>
<path fill="#FFF30E" d="M22.493,10.894c0.273-0.601,0.853-0.981,1.488-0.981c0.634,0,1.215,0.381,1.487,0.981l3.115,6.843
	l7.194,0.98c0.631,0.086,1.157,0.545,1.354,1.176c0.195,0.633,0.027,1.326-0.436,1.781l-5.266,5.213l1.33,7.451
	c0.116,0.652-0.137,1.316-0.652,1.709c-0.515,0.39-1.197,0.438-1.757,0.12l-6.371-3.624l-6.373,3.624
	c-0.56,0.317-1.24,0.271-1.755-0.12c-0.516-0.393-0.769-1.057-0.652-1.707l1.329-7.453l-5.269-5.213
	c-0.461-0.455-0.629-1.148-0.434-1.781c0.197-0.631,0.724-1.09,1.354-1.176l7.195-0.98L22.493,10.894z"/>
</svg>
