<?xml version="1.0" encoding="utf-8"?>
<!-- Generator: Adobe Illustrator 15.0.0, SVG Export Plug-In  -->
<!DOCTYPE svg PUBLIC "-//W3C//DTD SVG 1.1//EN" "http://www.w3.org/Graphics/SVG/1.1/DTD/svg11.dtd" [
	<!ENTITY ns_flows "http://ns.adobe.com/Flows/1.0/">
]>
<svg version="1.1"
	 xmlns="http://www.w3.org/2000/svg" xmlns:xlink="http://www.w3.org/1999/xlink" xmlns:a="http://ns.adobe.com/AdobeSVGViewerExtensions/3.0/"
	 x="0px" y="0px" width="48px" height="48px" viewBox="0 0 48 48" enable-background="new 0 0 48 48" xml:space="preserve">
<defs>
</defs>
<rect display="none" fill="#EBEBEB" width="48" height="48"/>
<circle fill="#82DEFF" cx="24" cy="24" r="20"/>
<path fill="#FFFFFF" d="M35.297,23.576c0,0.61-0.508,1.107-1.131,1.107H31.65c-0.725,0-1.408-0.346-1.828-0.927l-0.708-0.978
	l0.993-2.457l1.555,2.072h2.504C34.789,22.395,35.297,22.963,35.297,23.576z M21.23,26.109l-0.557,3.872l-3.197,3.475
	c-0.501,0.545-0.46,1.388,0.097,1.879c0.555,0.492,1.412,0.45,1.915-0.096l3.202-3.478c0.356-0.395,0.585-0.876,0.659-1.393
	l0.267-1.841l-2.165-2.124C21.362,26.316,21.309,26.204,21.23,26.109z M29.207,28.372l-2.729-2.681l2.402-5.945
	c0.28-0.692-0.077-1.505-0.834-1.752l-2.518-0.82c0,0-0.456-0.074-0.458-0.074h-4.18c-0.869,0-1.669,0.5-2.038,1.277l-1.152,2.444
	c-0.262,0.556-0.017,1.214,0.551,1.472c0.566,0.258,1.239,0.016,1.5-0.54l1.14-2.437h2.397l-1.427,3.539
	c-0.364,0.899-0.149,1.924,0.548,2.607l4.81,4.722v5.07c0,0.735,0.607,1.331,1.355,1.331s1.355-0.596,1.355-1.331v-5.167
	C29.931,29.447,29.668,28.822,29.207,28.372z M28.969,11.972c-1.371,0-2.485,1.093-2.485,2.438s1.114,2.439,2.485,2.439
	c1.372,0,2.486-1.094,2.486-2.439S30.341,11.972,28.969,11.972z M14.703,22.582c-0.546-0.279-1.221-0.072-1.507,0.463l-1.157,2.168
	c-0.284,0.535-0.073,1.197,0.473,1.477l3.604,1.854c0.546,0.279,1.221,0.072,1.507-0.463l1.155-2.168
	c0.287-0.535,0.075-1.197-0.471-1.478L14.703,22.582z"/>
</svg>
