<?xml version="1.0" encoding="utf-8"?>
<!-- Generator: Adobe Illustrator 15.0.0, SVG Export Plug-In  -->
<!DOCTYPE svg PUBLIC "-//W3C//DTD SVG 1.1//EN" "http://www.w3.org/Graphics/SVG/1.1/DTD/svg11.dtd" [
	<!ENTITY ns_flows "http://ns.adobe.com/Flows/1.0/">
]>
<svg version="1.1"
	 xmlns="http://www.w3.org/2000/svg" xmlns:xlink="http://www.w3.org/1999/xlink" xmlns:a="http://ns.adobe.com/AdobeSVGViewerExtensions/3.0/"
	 x="0px" y="0px" width="48px" height="48px" viewBox="0 0 48 48" enable-background="new 0 0 48 48" xml:space="preserve">
<defs>
</defs>
<rect display="none" fill="#E8E8E8" width="48" height="48"/>
<path fill="#FFFFFF" d="M24.001,7.785l4.226,9.285c0.427,0.938,1.305,1.592,2.326,1.73l10.032,1.365l-7.433,7.359
	c-0.701,0.693-1.016,1.688-0.842,2.659l1.846,10.346l-8.67-4.932c-0.46-0.262-0.972-0.393-1.483-0.393s-1.023,0.131-1.483,0.393
	l-8.671,4.931l1.845-10.346c0.173-0.971-0.142-1.965-0.844-2.659l-7.436-7.358l10.034-1.365c1.021-0.139,1.898-0.792,2.326-1.729
	L24.001,7.785 M24.002,4c-0.96,0-1.836,0.577-2.25,1.484l-4.71,10.344l-10.876,1.48c-0.951,0.131-1.747,0.823-2.044,1.777
	c-0.296,0.956-0.042,2.005,0.655,2.692l7.962,7.879l-2.009,11.264c-0.176,0.985,0.207,1.988,0.985,2.582
	C12.151,43.833,12.664,44,13.179,44c0.408,0,0.817-0.104,1.19-0.316l9.632-5.478l9.629,5.478c0.373,0.211,0.782,0.315,1.189,0.315
	c0.517,0,1.032-0.167,1.467-0.496c0.779-0.594,1.161-1.597,0.985-2.584l-2.009-11.262l7.958-7.879
	c0.699-0.688,0.953-1.736,0.658-2.692c-0.299-0.954-1.094-1.646-2.047-1.777l-10.874-1.48L26.25,5.484
	C25.838,4.577,24.959,4,24.002,4L24.002,4z"/>
</svg>
