<?xml version="1.0" encoding="utf-8"?>
<!-- Generator: Adobe Illustrator 15.0.0, SVG Export Plug-In  -->
<!DOCTYPE svg PUBLIC "-//W3C//DTD SVG 1.1//EN" "http://www.w3.org/Graphics/SVG/1.1/DTD/svg11.dtd" [
	<!ENTITY ns_flows "http://ns.adobe.com/Flows/1.0/">
]>
<svg version="1.1"
	 xmlns="http://www.w3.org/2000/svg" xmlns:xlink="http://www.w3.org/1999/xlink" xmlns:a="http://ns.adobe.com/AdobeSVGViewerExtensions/3.0/"
	 x="0px" y="0px" width="40px" height="40px" viewBox="0 0 40 40" enable-background="new 0 0 40 40" xml:space="preserve">
<defs>
</defs>
<rect display="none" fill="#E8E8E8" width="40" height="40"/>
<g>
	<g>
		<path fill="#13C87D" d="M20,5c8.271,0,15,6.729,15,15s-6.729,15-15,15S5,28.271,5,20S11.729,5,20,5 M20,4C11.163,4,4,11.163,4,20
			c0,8.836,7.163,16,16,16c8.836,0,16-7.164,16-16C36,11.163,28.836,4,20,4L20,4z"/>
	</g>
</g>
<g>
	<text transform="matrix(1 0 0 1 10.688 25.7393)" fill="#13C87D" font-family="'MicrosoftYaHei-Bold'" font-size="18">店</text>
</g>
</svg>
