<?xml version="1.0" encoding="utf-8"?>
<!-- Generator: Adobe Illustrator 15.0.0, SVG Export Plug-In  -->
<!DOCTYPE svg PUBLIC "-//W3C//DTD SVG 1.1//EN" "http://www.w3.org/Graphics/SVG/1.1/DTD/svg11.dtd" [
	<!ENTITY ns_flows "http://ns.adobe.com/Flows/1.0/">
]>
<svg version="1.1"
	 xmlns="http://www.w3.org/2000/svg" xmlns:xlink="http://www.w3.org/1999/xlink" xmlns:a="http://ns.adobe.com/AdobeSVGViewerExtensions/3.0/"
	 x="0px" y="0px" width="32px" height="32px" viewBox="0 0 32 32" enable-background="new 0 0 32 32" xml:space="preserve">
<defs>
</defs>
<rect display="none" fill="#F5F5F5" width="32" height="32"/>
<rect id="_x3C_切片_x3E__5_" display="none" fill="none" width="32" height="32"/>
<path fill="#CCCCCC" d="M16.585,26c-0.224,0-0.448-0.082-0.626-0.248c-0.37-0.346-0.388-0.926-0.043-1.295L23.828,16l-7.913-8.457
	c-0.345-0.37-0.326-0.949,0.043-1.295c0.37-0.347,0.95-0.327,1.296,0.043l8.498,9.083c0.33,0.353,0.33,0.9,0,1.253l-8.498,9.083
	C17.075,25.902,16.831,26,16.585,26z"/>
<path fill="#CCCCCC" d="M6.916,26c-0.224,0-0.448-0.082-0.626-0.248c-0.37-0.346-0.388-0.926-0.043-1.295L14.159,16L6.247,7.543
	C5.902,7.173,5.92,6.594,6.29,6.248c0.37-0.347,0.95-0.327,1.296,0.043l8.498,9.083c0.329,0.353,0.329,0.9,0,1.253l-8.498,9.083
	C7.406,25.902,7.162,26,6.916,26z"/>
</svg>
