<?xml version="1.0" encoding="utf-8"?>
<!-- Generator: Adobe Illustrator 15.0.0, SVG Export Plug-In  -->
<!DOCTYPE svg PUBLIC "-//W3C//DTD SVG 1.1//EN" "http://www.w3.org/Graphics/SVG/1.1/DTD/svg11.dtd" [
	<!ENTITY ns_flows "http://ns.adobe.com/Flows/1.0/">
]>
<svg version="1.1"
	 xmlns="http://www.w3.org/2000/svg" xmlns:xlink="http://www.w3.org/1999/xlink" xmlns:a="http://ns.adobe.com/AdobeSVGViewerExtensions/3.0/"
	 x="0px" y="0px" width="40px" height="40px" viewBox="0 0 40 40" enable-background="new 0 0 40 40" xml:space="preserve">
<defs>
</defs>
<rect display="none" fill="#E8E8E8" width="40" height="40"/>
<g>
	<g>
		<g>
			<g>
				<g>
					<g>
						<path fill="#FF9426" d="M20.134,22.661c-1.443,0-2.798-0.617-3.721-1.691c-1.701-1.988-1.42-4.948,0.631-6.599
							c0.865-0.698,1.961-1.081,3.086-1.081c1.443,0,2.8,0.617,3.72,1.693c0.827,0.963,1.216,2.179,1.098,3.424
							c-0.12,1.246-0.731,2.373-1.726,3.172C22.354,22.276,21.259,22.661,20.134,22.661z M20.13,14.685
							c-0.791,0-1.559,0.269-2.168,0.759c-1.44,1.159-1.639,3.238-0.442,4.636c0.647,0.754,1.601,1.188,2.614,1.188
							c0.791,0,1.561-0.269,2.169-0.76c0.698-0.563,1.127-1.353,1.212-2.229c0.084-0.875-0.189-1.729-0.77-2.404
							C22.098,15.118,21.144,14.685,20.13,14.685z"/>
					</g>
					<g>
						<path fill="#FF9426" d="M24.388,17.669l-0.5-1.307l6.369-2.288c0.76-0.274,1.22-1.146,1.004-1.903
							c-0.006-0.012-0.389-1.322-1.279-2.361c-0.891-1.037-2.148-1.646-2.16-1.65c-0.729-0.346-1.697-0.067-2.115,0.607
							l-3.492,5.645l-1.232-0.715l3.49-5.646c0.8-1.292,2.585-1.805,3.98-1.144c0.063,0.03,1.541,0.738,2.636,2.013
							c1.093,1.277,1.54,2.817,1.559,2.881c0.413,1.45-0.437,3.058-1.892,3.579L24.388,17.669z"/>
					</g>
					<g>
						<path fill="#FF9426" d="M12.96,28.982c-0.446,0-0.893-0.093-1.307-0.288c-0.062-0.029-1.541-0.738-2.635-2.014
							c-1.092-1.275-1.54-2.814-1.559-2.881c-0.415-1.449,0.436-3.057,1.891-3.578l6.369-2.291l0.5,1.308l-6.367,2.288
							c-0.762,0.275-1.223,1.146-1.008,1.902c0.006,0.014,0.392,1.322,1.281,2.363c0.898,1.045,2.145,1.645,2.158,1.648
							c0.73,0.346,1.699,0.067,2.117-0.607l3.492-5.643l1.231,0.714l-3.492,5.646C15.072,28.458,14.02,28.982,12.96,28.982z"/>
					</g>
					<g>
						<path fill="#FF9426" d="M16.849,14.97L13.55,9.216c-0.754-1.314-0.32-3.07,0.967-3.91c0.059-0.039,1.432-0.928,3.117-1.205
							c1.688-0.281,3.286,0.114,3.352,0.13c1.506,0.38,2.517,1.896,2.256,3.378l-1.137,6.49l-1.418-0.232l1.139-6.491
							c0.135-0.774-0.414-1.598-1.199-1.794c-0.014-0.006-1.375-0.335-2.75-0.109c-1.385,0.232-2.544,0.98-2.557,0.988
							c-0.672,0.441-0.908,1.393-0.513,2.079l3.3,5.753L16.849,14.97z"/>
					</g>
					<g>
						<path fill="#FF9426" d="M21.2,31.603c-1.143,0-2.031-0.222-2.08-0.234c-1.504-0.377-2.516-1.893-2.254-3.377l1.136-6.487
							l1.419,0.233l-1.138,6.487c-0.138,0.774,0.412,1.597,1.198,1.795c0.012,0.005,1.375,0.336,2.748,0.108
							c1.386-0.23,2.545-0.98,2.559-0.988c0.67-0.438,0.906-1.391,0.512-2.078l-3.299-5.752l1.257-0.678l3.299,5.754
							c0.755,1.314,0.321,3.068-0.968,3.909c-0.057,0.039-1.43,0.927-3.116,1.206C22.033,31.574,21.601,31.603,21.2,31.603z"/>
					</g>
					<g>
						<path fill="#FF9426" d="M15.921,19.075l-6.792-0.108C7.577,18.94,6.226,17.7,6.117,16.199
							c-0.004-0.067-0.111-1.663,0.482-3.22c0.595-1.554,1.746-2.699,1.796-2.748c1.088-1.071,2.947-1.164,4.146-0.201l5.229,4.197
							l-0.919,1.074l-5.229-4.199c-0.623-0.502-1.633-0.451-2.203,0.107c-0.012,0.01-0.987,0.986-1.471,2.253
							C7.46,14.74,7.551,16.09,7.552,16.102c0.057,0.784,0.791,1.458,1.602,1.472l6.791,0.106L15.921,19.075z"/>
					</g>
					<g>
						<path fill="#FF9426" d="M29.517,26.237c-0.698,0-1.395-0.219-1.949-0.666l-5.23-4.199l0.918-1.072l5.229,4.199
							c0.627,0.502,1.634,0.453,2.205-0.109c0.01-0.009,0.986-0.986,1.47-2.253c0.484-1.265,0.397-2.624,0.396-2.639
							c-0.057-0.782-0.791-1.458-1.603-1.472l-6.791-0.107l0.025-1.393l6.789,0.108c1.555,0.022,2.904,1.267,3.014,2.767
							c0.006,0.068,0.109,1.664-0.48,3.219c-0.596,1.557-1.748,2.699-1.797,2.749C31.128,25.944,30.322,26.237,29.517,26.237z"/>
					</g>
				</g>
			</g>
			<path fill="#FF9426" d="M6,35.097c0.447,0.316,0.905,0.617,1.377,0.902c2.938-1.385,5.501-3.287,7.532-5.648
				c2.267-2.637,3.879-5.889,4.311-8.701l-1.424-0.206C17.268,24.894,14.104,31.64,6,35.097z"/>
		</g>
	</g>
</g>
</svg>
