<?xml version="1.0" encoding="utf-8"?>
<!-- Generator: Adobe Illustrator 15.0.0, SVG Export Plug-In  -->
<!DOCTYPE svg PUBLIC "-//W3C//DTD SVG 1.1//EN" "http://www.w3.org/Graphics/SVG/1.1/DTD/svg11.dtd" [
	<!ENTITY ns_flows "http://ns.adobe.com/Flows/1.0/">
]>
<svg version="1.1"
	 xmlns="http://www.w3.org/2000/svg" xmlns:xlink="http://www.w3.org/1999/xlink" xmlns:a="http://ns.adobe.com/AdobeSVGViewerExtensions/3.0/"
	 x="0px" y="0px" width="40px" height="40px" viewBox="0 0 40 40" enable-background="new 0 0 40 40" xml:space="preserve">
<defs>
</defs>
<rect display="none" fill="#E8E8E8" width="40" height="40"/>
<g>
	<g>
		<path fill="#F55753" d="M19.999,7.421c1.436,0,2.957,2.566,4.069,6.864l0.292,1.127l1.162-0.064
			c0.701-0.039,1.425-0.06,2.092-0.06c3.553,0,5.541,0.557,5.908,1.655c0.332,0.994-0.927,3.042-5.459,5.808l-1.037,0.633
			l0.464,1.123c1.688,4.085,2.017,7.002,0.879,7.805c-0.255,0.18-0.563,0.268-0.944,0.268c-1.334,0-3.778-1.318-6.538-3.525
			l-0.889-0.71l-0.888,0.711c-2.754,2.207-5.197,3.524-6.535,3.524c-0.381,0-0.689-0.088-0.946-0.27
			c-1.137-0.802-0.807-3.719,0.883-7.803l0.464-1.123l-1.037-0.633c-4.533-2.766-5.794-4.813-5.461-5.808
			c0.367-1.098,2.354-1.655,5.906-1.655c0.668,0,1.393,0.021,2.094,0.06l1.162,0.064l0.292-1.127
			C17.043,9.987,18.564,7.421,19.999,7.421 M19.999,6c-2.73,0-4.435,4.03-5.443,7.929c-0.617-0.034-1.371-0.062-2.172-0.062
			c-4.412,0-6.647,0.81-7.254,2.626c-0.844,2.521,2.566,5.334,6.068,7.471c-1.541,3.726-2.596,7.95-0.389,9.507
			C11.306,33.822,11.899,34,12.575,34c2.262,0,5.525-2.315,7.424-3.836C21.901,31.685,25.165,34,27.425,34
			c0.676,0,1.27-0.178,1.766-0.529c2.207-1.557,1.152-5.781-0.387-9.507c3.5-2.137,6.909-4.952,6.066-7.472
			c-0.607-1.815-2.844-2.625-7.256-2.625c-0.799,0-1.553,0.027-2.17,0.062C24.435,10.03,22.732,6,19.999,6L19.999,6z"/>
	</g>
</g>
</svg>
