<?xml version="1.0" encoding="utf-8"?>
<!-- Generator: Adobe Illustrator 15.0.0, SVG Export Plug-In  -->
<!DOCTYPE svg PUBLIC "-//W3C//DTD SVG 1.1//EN" "http://www.w3.org/Graphics/SVG/1.1/DTD/svg11.dtd" [
	<!ENTITY ns_flows "http://ns.adobe.com/Flows/1.0/">
]>
<svg version="1.1"
	 xmlns="http://www.w3.org/2000/svg" xmlns:xlink="http://www.w3.org/1999/xlink" xmlns:a="http://ns.adobe.com/AdobeSVGViewerExtensions/3.0/"
	 x="0px" y="0px" width="40px" height="40px" viewBox="0 0 40 40" enable-background="new 0 0 40 40" xml:space="preserve">
<defs>
</defs>
<rect display="none" fill="#E8E8E8" width="40" height="40"/>
<linearGradient id="SVGID_1_" gradientUnits="userSpaceOnUse" x1="23.043" y1="85.9082" x2="23.043" y2="-37.3193">
	<stop  offset="0" style="stop-color:#7FA6FD"/>
	<stop  offset="1" style="stop-color:#6882FD"/>
</linearGradient>
<path fill-rule="evenodd" clip-rule="evenodd" fill="url(#SVGID_1_)" d="M25.517,15.917c-0.03,0-0.06,0.001-0.091,0.003v-0.009
	h-3.703v-3.612c0.004-0.036,0.006-0.071,0.006-0.107c0-0.624-0.517-1.13-1.152-1.13c-0.637,0-1.153,0.506-1.153,1.13
	c0,0.029,0.002,0.059,0.004,0.088h-0.009v4.721h0.007c-0.001,0.012-0.002,0.023-0.002,0.035c0,0.004-0.002,0.006-0.002,0.01
	c0,0.624,0.515,1.13,1.152,1.13c0.036,0,0.072-0.001,0.108-0.005h4.727c0.036,0.004,0.071,0.005,0.108,0.005
	c0.637,0,1.151-0.506,1.151-1.13S26.153,15.917,25.517,15.917z"/>
<linearGradient id="SVGID_2_" gradientUnits="userSpaceOnUse" x1="20.375" y1="35.6416" x2="20.375" y2="3.4822">
	<stop  offset="0" style="stop-color:#7FA6FD"/>
	<stop  offset="1" style="stop-color:#6882FD"/>
</linearGradient>
<path fill-rule="evenodd" clip-rule="evenodd" fill="url(#SVGID_2_)" d="M20.395,4.01c-0.007,0-0.014,0.001-0.02,0.001
	c-0.008,0-0.013-0.001-0.021-0.001c-7.168,0-12.979,5.959-12.979,12.989c0,2.232,0.586,4.459,1.615,6.283
	c0.182,0.338,0.387,0.749,0.617,1.097l0.43,0.569c0.064,0.083,0.129,0.18,0.196,0.262l7.629,9.554l0.004-0.01
	c0,0,0.801,1.242,2.48,1.256c0,0,0.02-0.001,0.028-0.001c0.008,0,0.027,0.001,0.027,0.001c1.68-0.014,2.48-1.256,2.48-1.256
	l0.004,0.01l7.629-9.554c0.067-0.082,0.132-0.179,0.196-0.262l0.43-0.569c0.23-0.348,0.435-0.759,0.616-1.097
	c1.03-1.824,1.617-4.051,1.617-6.283C33.375,9.969,27.563,4.01,20.395,4.01z M20.395,25.125c-0.007,0-0.014-0.001-0.02-0.001l0,0
	l0,0h-0.001l0,0c-0.007,0-0.013,0.001-0.02,0.001c-4.429,0-8.021-3.523-8.021-7.869s3.593-7.868,8.021-7.868
	c0.007,0,0.013,0.001,0.02,0.001l0,0h0.001l0,0l0,0c0.006,0,0.013-0.001,0.02-0.001c4.429,0,8.021,3.523,8.021,7.868
	S24.823,25.125,20.395,25.125z"/>
</svg>
