<?xml version="1.0" encoding="utf-8"?>
<!-- Generator: Adobe Illustrator 15.0.0, SVG Export Plug-In  -->
<!DOCTYPE svg PUBLIC "-//W3C//DTD SVG 1.1//EN" "http://www.w3.org/Graphics/SVG/1.1/DTD/svg11.dtd" [
	<!ENTITY ns_flows "http://ns.adobe.com/Flows/1.0/">
]>
<svg version="1.1"
	 xmlns="http://www.w3.org/2000/svg" xmlns:xlink="http://www.w3.org/1999/xlink" xmlns:a="http://ns.adobe.com/AdobeSVGViewerExtensions/3.0/"
	 x="0px" y="0px" width="32px" height="32px" viewBox="0 0 32 32" enable-background="new 0 0 32 32" xml:space="preserve">
<defs>
</defs>
<rect display="none" fill="#E8E8E8" width="32" height="32"/>
<rect id="_x3C_切片_x3E__4_" display="none" fill="none" width="32" height="32"/>
<g>
	<g>
		<path fill-rule="evenodd" clip-rule="evenodd" fill="#CCCCCC" d="M27.75,27.754c-0.336,0.328-0.879,0.328-1.213,0l-4.377-4.268
			c-1.917,1.53-4.357,2.449-7.015,2.449C8.99,25.935,4,21.025,4,14.968S8.99,4,15.146,4S26.29,8.91,26.29,14.968
			c0,2.832-1.101,5.405-2.894,7.352l4.354,4.241C28.083,26.889,28.083,27.423,27.75,27.754z M15.146,5.687
			c-5.21,0-9.433,4.155-9.433,9.281c0,5.128,4.223,9.28,9.433,9.28c5.208,0,9.43-4.152,9.43-9.28
			C24.575,9.841,20.354,5.687,15.146,5.687z"/>
	</g>
</g>
</svg>
